<svg id="svg" version="1.1" xmlns="http://www.w3.org/2000/svg" xmlns:xlink="http://www.w3.org/1999/xlink" width="400" height="300.17574692442884" viewBox="0, 0, 400,300.17574692442884"><g id="svgg"><path id="path0" d="M141.742 106.195 C 135.782 106.930,127.599 110.225,122.285 114.031 C 113.890 120.043,112.516 124.312,116.776 131.155 C 117.573 132.436,119.374 135.443,120.778 137.838 C 122.182 140.233,125.332 145.571,127.779 149.700 C 130.226 153.829,134.449 160.991,137.165 165.616 C 144.494 178.098,147.882 182.485,153.403 186.641 C 166.337 196.378,184.377 197.063,198.032 188.337 C 199.809 187.201,200.148 187.177,201.507 188.091 C 211.436 194.774,225.251 196.450,236.303 192.313 C 247.069 188.284,253.074 182.324,262.747 166.066 C 265.449 161.524,268.160 156.997,268.771 156.006 C 277.464 141.905,285.355 128.304,285.760 126.724 C 287.789 118.803,274.470 108.567,259.568 106.593 C 244.678 104.622,230.303 110.913,221.497 123.253 C 220.370 124.832,214.414 134.426,214.414 134.662 C 214.414 135.124,200.262 158.134,199.938 158.197 C 199.625 158.258,198.538 156.652,196.486 153.092 C 181.693 127.431,178.545 122.449,174.405 118.144 C 165.754 109.149,153.664 104.726,141.742 106.195 M153.321 124.679 C 156.470 125.864,158.614 127.223,161.137 129.635 C 163.961 132.333,164.455 133.073,171.617 145.345 C 179.899 159.534,184.581 167.385,186.687 170.611 C 188.709 173.708,188.528 174.075,184.206 175.645 C 176.610 178.404,168.859 177.003,162.918 171.795 C 160.073 169.301,158.006 166.500,154.147 159.910 C 152.986 157.928,149.298 151.644,145.952 145.946 C 136.942 130.604,135.135 127.447,135.135 127.048 C 135.135 126.561,139.176 124.724,141.838 124.000 C 145.228 123.079,149.784 123.348,153.321 124.679 M257.942 124.042 C 263.082 124.876,265.857 126.347,265.096 127.835 C 263.878 130.217,242.653 165.301,241.392 167.016 C 235.621 174.868,227.259 178.481,218.919 176.727 C 216.481 176.214,212.392 174.430,212.138 173.769 C 211.909 173.171,211.993 173.019,220.099 159.484 C 224.014 152.946,227.859 146.517,228.644 145.195 C 229.428 143.874,230.194 142.590,230.344 142.342 C 230.495 142.095,231.591 140.270,232.779 138.288 C 239.752 126.659,247.396 122.331,257.942 124.042 " stroke="none" fill="#4484e5" fill-rule="evenodd"></path><path id="path1" d="M0.000 150.150 L 0.000 300.300 200.000 300.300 L 400.000 300.300 400.000 150.150 L 400.000 0.000 200.000 0.000 L 0.000 0.000 0.000 150.150 M155.556 107.014 C 165.322 109.624,173.582 115.587,179.333 124.180 C 181.183 126.943,189.279 140.591,196.486 153.092 C 198.538 156.652,199.625 158.258,199.938 158.197 C 200.262 158.134,214.414 135.124,214.414 134.662 C 214.414 134.426,220.370 124.832,221.497 123.253 C 230.303 110.913,244.678 104.622,259.568 106.593 C 274.470 108.567,287.789 118.803,285.760 126.724 C 285.355 128.304,277.464 141.905,268.771 156.006 C 268.160 156.997,265.449 161.524,262.747 166.066 C 253.074 182.324,247.069 188.284,236.303 192.313 C 225.251 196.450,211.436 194.774,201.507 188.091 C 200.148 187.177,199.809 187.201,198.032 188.337 C 184.377 197.063,166.337 196.378,153.403 186.641 C 147.882 182.485,144.494 178.098,137.165 165.616 C 134.449 160.991,130.226 153.829,127.779 149.700 C 125.332 145.571,122.182 140.233,120.778 137.838 C 119.374 135.443,117.573 132.436,116.776 131.155 C 112.516 124.312,113.890 120.043,122.285 114.031 C 131.966 107.097,145.323 104.281,155.556 107.014 M141.838 124.000 C 139.176 124.724,135.135 126.561,135.135 127.048 C 135.135 127.447,136.942 130.604,145.952 145.946 C 149.298 151.644,152.986 157.928,154.147 159.910 C 158.006 166.500,160.073 169.301,162.918 171.795 C 165.271 173.857,166.298 174.483,169.520 175.815 C 173.376 177.410,179.544 177.338,184.206 175.645 C 188.528 174.075,188.709 173.708,186.687 170.611 C 184.581 167.385,179.899 159.534,171.617 145.345 C 164.455 133.073,163.961 132.333,161.137 129.635 C 155.681 124.421,148.261 122.254,141.838 124.000 M250.751 123.932 C 243.183 125.204,238.272 129.126,232.779 138.288 C 231.591 140.270,230.495 142.095,230.344 142.342 C 230.194 142.590,229.428 143.874,228.644 145.195 C 227.859 146.517,224.014 152.946,220.099 159.484 C 211.993 173.019,211.909 173.171,212.138 173.769 C 212.392 174.430,216.481 176.214,218.919 176.727 C 227.259 178.481,235.621 174.868,241.392 167.016 C 242.653 165.301,263.878 130.217,265.096 127.835 C 266.303 125.474,256.861 122.905,250.751 123.932 " stroke="none" fill="#050618" fill-rule="evenodd"></path></g></svg>